<svg id="Layer_1" enable-background="new 0 0 512 512" height="512" viewBox="0 0 512 512" width="512" xmlns="http://www.w3.org/2000/svg"><g><path d="m356.773 113.584c-28.573 0-51.819 23.246-51.819 51.819s23.246 51.819 51.819 51.819 51.819-23.246 51.819-51.819-23.246-51.819-51.819-51.819zm0 73.639c-12.031 0-21.819-9.788-21.819-21.819s9.788-21.819 21.819-21.819 21.819 9.788 21.819 21.819-9.788 21.819-21.819 21.819z"/><path d="m479.992 326.623-40.773-92.537c3.847-6.655 5.648-13.924 7.174-20.125.937-3.807 1.822-7.402 2.981-10.191 1.063-2.557 2.921-5.576 4.888-8.772 4.787-7.777 10.744-17.456 10.744-29.594s-5.957-21.817-10.744-29.594c-1.967-3.196-3.825-6.215-4.888-8.772-1.159-2.789-2.044-6.384-2.981-10.191-2.157-8.764-4.841-19.671-13.117-27.947-3.997-3.997-8.61-6.683-13.297-8.642v-65.258c0-8.284-6.716-15-15-15h-359.244c-8.284 0-15 6.716-15 15v482c0 8.284 6.716 15 15 15h359.244c8.284 0 15-6.716 15-15v-133.636l13.788-20.133 30.401 4.292c5.39.761 10.77-1.458 14.056-5.798s3.963-10.121 1.768-15.102zm-51.279-175.088c3.236 5.257 6.292 10.223 6.292 13.868s-3.056 8.611-6.292 13.868c-2.492 4.048-5.068 8.234-7.042 12.982-2.04 4.907-3.245 9.802-4.41 14.536-1.397 5.676-2.842 11.546-5.2 13.904s-8.228 3.802-13.904 5.2c-4.734 1.165-9.629 2.37-14.536 4.409-4.747 1.974-8.934 4.55-12.982 7.042-5.257 3.236-10.223 6.292-13.868 6.292-3.646 0-8.611-3.056-13.869-6.292-4.048-2.492-8.234-5.068-12.981-7.042-4.907-2.04-9.802-3.245-14.536-4.41-5.676-1.397-11.546-2.842-13.904-5.2s-3.803-8.228-5.2-13.904c-1.165-4.734-2.37-9.629-4.409-14.535-1.974-4.748-4.55-8.934-7.042-12.982-3.236-5.257-6.292-10.223-6.292-13.868s3.057-8.611 6.292-13.868c2.492-4.048 5.068-8.234 7.042-12.982 2.039-4.906 3.244-9.801 4.409-14.534 1.397-5.677 2.842-11.546 5.2-13.905 2.358-2.358 8.228-3.802 13.904-5.2 4.734-1.165 9.629-2.37 14.536-4.409 4.747-1.974 8.934-4.55 12.982-7.042 5.257-3.236 10.223-6.292 13.868-6.292s8.61 3.056 13.868 6.292c4.048 2.492 8.235 5.069 12.983 7.042 4.906 2.04 9.801 3.244 14.535 4.409 5.677 1.397 11.546 2.842 13.904 5.2s3.803 8.227 5.2 13.903c1.165 4.734 2.37 9.63 4.41 14.536 1.974 4.748 4.551 8.934 7.042 12.982zm-129.718 100.989c3.193 1.011 6.325 1.787 9.221 2.5 3.807.937 7.402 1.822 10.191 2.981 2.558 1.063 5.576 2.921 8.772 4.888 2.165 1.332 4.483 2.753 6.954 4.113l-27.478 62.363-7.374-10.768c-3.221-4.703-8.83-7.172-14.473-6.377l-12.922 1.825zm-238.26 229.476v-452h329.244v40.108c-1.167-.689-2.376-1.432-3.613-2.193-7.777-4.787-17.455-10.744-29.593-10.744s-21.817 5.958-29.594 10.744c-3.196 1.967-6.214 3.825-8.771 4.888-2.789 1.159-6.384 2.044-10.191 2.981-8.764 2.157-19.671 4.842-27.946 13.117-8.276 8.276-10.96 19.184-13.118 27.948-.856 3.478-1.671 6.773-2.689 9.444h-151.23c-8.284 0-15 6.716-15 15s6.716 15 15 15h136.43c-.7 2.874-1.124 5.904-1.124 9.111 0 8.064 2.633 15.037 5.802 21.094h-141.108c-8.284 0-15 6.716-15 15s6.716 15 15 15h153.413c.379 0 .751-.029 1.123-.057 1.414 5.613 3.213 11.864 6.562 17.653l-5.688 12.91c-.969-.197-1.972-.301-2.999-.301h-152.411c-8.284 0-15 6.716-15 15s6.716 15 15 15h142.324l-13.309 30.205h-129.015c-8.284 0-15 6.716-15 15s6.716 15 15 15h119.675c.504 1.712 1.31 3.348 2.422 4.817 3.286 4.34 8.665 6.56 14.056 5.798l30.401-4.292 17.349 25.332c2.812 4.106 7.456 6.525 12.373 6.524.462 0 .927-.021 1.392-.065 5.42-.504 10.143-3.906 12.337-8.887l33.538-76.117 33.201 75.353v116.629zm368.011-169.776c-5.64-.795-11.252 1.674-14.473 6.377l-7.374 10.768-27.479-62.367c2.469-1.359 4.784-2.778 6.947-4.109 3.196-1.967 6.214-3.825 8.771-4.888 2.789-1.159 6.384-2.044 10.191-2.981 2.899-.714 6.035-1.491 9.23-2.503l27.11 61.528z"/><path d="m113.234 96.087h92.846c8.284 0 15-6.716 15-15s-6.716-15-15-15h-92.846c-8.284 0-15 6.716-15 15s6.716 15 15 15z"/><path d="m206.08 367.113h-92.846c-8.284 0-15 6.716-15 15s6.716 15 15 15h92.846c8.284 0 15-6.716 15-15s-6.716-15-15-15z"/><path d="m337.56 421.218h-56.102c-8.284 0-15 6.716-15 15s6.716 15 15 15h56.102c8.284 0 15-6.716 15-15s-6.716-15-15-15z"/></g></svg>