<?xml version="1.0" encoding="iso-8859-1"?>
<!-- Generator: Adobe Illustrator 19.0.0, SVG Export Plug-In . SVG Version: 6.00 Build 0)  -->
<svg xmlns="http://www.w3.org/2000/svg" xmlns:xlink="http://www.w3.org/1999/xlink" version="1.1" id="Capa_1" x="0px" y="0px" viewBox="0 0 510 510" style="enable-background:new 0 0 510 510;" xml:space="preserve" width="512" height="512">
<g>
	<path d="M412.5,157.5C412.5,70.654,341.846,0,255,0S97.5,70.654,97.5,157.5c0,53.407,26.726,100.682,67.5,129.176V493.95   c0,8.85,7.2,16.05,16.05,16.05c6.695,0,12.701-4.223,15.028-10.416l7.359-11.374l7.359,11.374   c2.328,6.193,8.333,10.416,15.028,10.416c8.85,0,16.05-7.2,16.05-16.05V314.449C246.204,314.808,250.58,315,255,315   c2.515,0,5.014-0.065,7.5-0.183V493.95c0,8.85,7.2,16.05,16.05,16.05c6.695,0,12.701-4.223,15.028-10.416l7.359-11.374   l7.359,11.374c2.328,6.193,8.333,10.416,15.028,10.416c8.85,0,16.05-7.2,16.05-16.05V290.437   C383.3,262.458,412.5,213.327,412.5,157.5z M226.875,493.95c0,0.579-0.471,1.05-1.05,1.05c-0.467,0-0.882-0.313-1.01-0.762   l-0.307-1.075l-13.255-20.488c-0.337-0.669-0.765-1.28-1.252-1.833V435h-15v38.638l-12.632,19.525l-0.307,1.075   c-0.128,0.449-0.543,0.762-1.01,0.762c-0.579,0-1.05-0.471-1.05-1.05v-197.98c14.42,7.842,30.195,13.493,46.875,16.512V493.95z    M324.375,493.95c0,0.579-0.471,1.05-1.05,1.05c-0.467,0-0.882-0.313-1.01-0.762l-0.307-1.075l-13.255-20.488   c-0.337-0.669-0.765-1.28-1.252-1.833V435h-15v38.638l-12.632,19.525l-0.307,1.075c-0.128,0.449-0.543,0.762-1.01,0.762   c-0.579,0-1.05-0.471-1.05-1.05V313.386c16.595-2.384,32.361-7.363,46.875-14.515V493.95z M255,300   c-78.575,0-142.5-63.925-142.5-142.5S176.425,15,255,15s142.5,63.925,142.5,142.5S333.575,300,255,300z"/>
	<path d="M210.99,53.932l-5.873-13.803c-9.619,4.093-18.733,9.382-27.09,15.719L187.09,67.8   C194.464,62.208,202.505,57.542,210.99,53.932z"/>
	<path d="M251.349,45.058l-0.478-14.992c-10.503,0.334-20.918,1.958-30.954,4.824l4.119,14.423   C232.888,46.785,242.077,45.354,251.349,45.058z"/>
	<path d="M176.586,76.831L166.13,66.076c-7.516,7.308-14.118,15.523-19.623,24.418l12.755,7.894   C164.121,90.536,169.95,83.283,176.586,76.831z"/>
	<path d="M152.713,110.593l-13.63-6.262c-4.376,9.524-7.559,19.581-9.462,29.891l14.751,2.723   C146.049,127.854,148.856,118.989,152.713,110.593z"/>
	<path d="M297.172,37.142c-9.867-3.457-20.171-5.687-30.626-6.625l-1.343,14.939c9.223,0.829,18.31,2.794,27.009,5.842   L297.172,37.142z"/>
	<path d="M337.782,60.526c-7.976-6.814-16.77-12.629-26.136-17.281l-6.673,13.434c8.264,4.105,16.024,9.236,23.064,15.251   L337.782,60.526z"/>
	<path d="M366.628,143.416l14.885-1.858c-1.3-10.409-3.887-20.63-7.69-30.379l-13.975,5.451   C363.201,125.224,365.482,134.236,366.628,143.416z"/>
	<path d="M346.843,222.487l12.237,8.675c6.07-8.562,11.064-17.848,14.844-27.602l-13.986-5.421   C356.604,206.741,352.198,214.933,346.843,222.487z"/>
	<path d="M367.228,96.944c-4.973-9.198-11.084-17.782-18.164-25.516l-11.063,10.129c6.25,6.827,11.644,14.404,16.032,22.521   L367.228,96.944z"/>
	<path d="M191.313,267.977c9.086,5.249,18.8,9.357,28.873,12.21l4.088-14.433c-8.879-2.515-17.445-6.137-25.458-10.766   L191.313,267.977z"/>
	<path d="M237.799,268.694l-2.274,14.826c6.4,0.982,12.952,1.479,19.475,1.479c3.941,0,7.919-0.182,11.822-0.542l-1.375-14.937   C256.295,270.362,246.865,270.083,237.799,268.694z"/>
	<path d="M142.5,157.5c0-2.264,0.068-4.555,0.203-6.81l-14.974-0.893c-0.152,2.551-0.229,5.142-0.229,7.702   c0,7.911,0.731,15.834,2.172,23.55l14.745-2.754C143.145,171.486,142.5,164.489,142.5,157.5z"/>
	<path d="M367.5,157.227v0.273c0,9.29-1.133,18.522-3.368,27.44l14.55,3.646c2.534-10.11,3.818-20.569,3.818-31.087v-0.273H367.5z"/>
	<path d="M167.401,228.096l-11.673,9.42c6.576,8.149,14.146,15.48,22.5,21.789l9.04-11.97   C179.893,241.764,173.208,235.292,167.401,228.096z"/>
	<path d="M147.796,191.718l-14.291,4.557c3.179,9.968,7.599,19.541,13.138,28.452l12.739-7.919   C154.497,208.948,150.599,200.506,147.796,191.718z"/>
	<path d="M317.164,251.28l8.3,12.495c8.715-5.79,16.713-12.65,23.772-20.392l-11.084-10.106   C331.919,240.113,324.858,246.17,317.164,251.28z"/>
	<path d="M279.13,267.408l3.201,14.654c10.232-2.235,20.176-5.743,29.556-10.427l-6.701-13.42   C296.916,262.345,288.149,265.438,279.13,267.408z"/>
	<rect x="195" y="405" width="15" height="15"/>
	<rect x="292.5" y="405" width="15" height="15"/>
	<path d="M319.475,136.551c-1.423-4.379-5.473-7.321-10.077-7.321H275.54l-10.463-32.202c-1.423-4.379-5.472-7.321-10.076-7.321   s-8.654,2.942-10.076,7.321L234.46,129.23h-33.858c-4.604,0-8.654,2.942-10.077,7.321c-1.423,4.378,0.124,9.139,3.849,11.845   l27.393,19.902L211.303,200.5c-1.422,4.379,0.125,9.139,3.85,11.845c1.862,1.353,4.044,2.029,6.227,2.029   c2.182,0,4.365-0.676,6.228-2.03L255,192.443l27.392,19.902c3.725,2.707,8.729,2.706,12.455,0c3.725-2.706,5.272-7.466,3.85-11.846   l-10.463-32.201l27.393-19.902C319.351,145.69,320.897,140.929,319.475,136.551z M276.828,158.044   c-3.725,2.706-5.272,7.465-3.85,11.846l7.263,22.352l-19.014-13.815c-3.725-2.705-8.73-2.706-12.455,0.001l-19.014,13.814   l7.263-22.353c1.422-4.379-0.125-9.139-3.85-11.844l-19.013-13.814h23.502c4.605,0,8.655-2.943,10.076-7.321L255,114.558   l7.262,22.35c1.422,4.38,5.471,7.323,10.077,7.323h23.502L276.828,158.044z"/>
	<rect x="247.5" y="232.5" width="15" height="15"/>
	<rect x="325.962" y="175.494" transform="matrix(-0.9511 -0.309 0.309 -0.9511 594.0626 460.07)" width="15" height="15"/>
	<rect x="295.993" y="83.256" transform="matrix(-0.5878 0.809 -0.809 -0.5878 555.3038 -101.4296)" width="14.999" height="15"/>
	<rect x="199.008" y="83.256" transform="matrix(-0.5878 -0.809 0.809 -0.5878 254.4662 311.1694)" width="14.999" height="15"/>
	<rect x="169.038" y="175.494" transform="matrix(-0.9511 0.309 -0.309 -0.9511 400.9804 302.4842)" width="15" height="15"/>
</g>















</svg>
